static_00
version=1
nRows=27
nColumns=46
inDegrees=yes
endheader
time	ground_force3_vx	ground_force3_vy	ground_force3_vz	ground_force3_px	ground_force3_py	ground_force3_pz	ground_torque3_x	ground_torque3_y	ground_torque3_z	ground_force5_vx	ground_force5_vy	ground_force5_vz	ground_force5_px	ground_force5_py	ground_force5_pz	ground_torque5_x	ground_torque5_y	ground_torque5_z	ground_force4_vx	ground_force4_vy	ground_force4_vz	ground_force4_px	ground_force4_py	ground_force4_pz	ground_torque4_x	ground_torque4_y	ground_torque4_z	ground_force1_vx	ground_force1_vy	ground_force1_vz	ground_force1_px	ground_force1_py	ground_force1_pz	ground_torque1_x	ground_torque1_y	ground_torque1_z	ground_force2_vx	ground_force2_vy	ground_force2_vz	ground_force2_px	ground_force2_py	ground_force2_pz	ground_torque2_x	ground_torque2_y	ground_torque2_z
0.368000	-0.682951	25.910469	-2.906816	0.219236	0.000000	-0.255606	0.000000	0.177379	0.000000	0.311857	39.663670	-3.203388	0.216328	0.000000	-1.418216	0.000002	0.697954	0.000001	-2.258272	580.751282	-1.767538	0.212288	0.000000	-0.868871	0.000039	-0.754401	0.000007	3.213281	13.712053	1.534626	0.212889	0.000000	0.823003	-0.000001	0.834950	-0.000000	-1.808758	16.646608	3.135697	0.162958	0.000000	0.242499	-0.000000	1.076432	0.000000	
0.369000	-0.522078	24.326305	-3.068284	0.209778	0.000000	-0.260292	0.000000	0.109502	0.000000	0.473070	36.162209	-1.757225	0.221109	0.000000	-1.416967	0.000006	0.645173	0.000000	-1.282750	580.746948	-2.086567	0.212647	0.000000	-0.869110	0.000038	-0.408122	0.000003	2.888626	13.714361	1.051325	0.218436	0.000000	0.875244	-0.000001	1.063205	0.000000	-0.682557	15.372036	3.137733	0.164937	0.000000	0.219393	-0.000000	0.978991	0.000000	
0.370000	-0.522078	26.538717	-2.906475	0.213527	0.000000	-0.274709	0.000000	0.184432	0.000000	0.472561	37.432442	-2.561590	0.216587	0.000000	-1.420766	0.000003	0.616589	0.000001	-2.416227	581.708313	-1.603943	0.212461	0.000000	-0.869225	0.000032	-0.501845	0.000007	2.242752	13.714655	0.406641	0.210066	0.000000	0.846228	-0.000000	0.874317	0.000000	-1.486503	15.374031	2.815984	0.140724	0.000000	0.244554	-0.000000	1.111816	-0.000000	
0.371000	-0.522078	25.911135	-3.067602	0.226153	0.000000	-0.288340	0.000000	0.058748	-0.000000	0.633774	39.344444	-2.400717	0.212309	0.000000	-1.424410	0.000001	0.601176	0.000000	-1.123252	580.105835	-1.281855	0.212945	0.000000	-0.868804	0.000033	-0.529290	0.000004	2.890344	14.027027	1.211859	0.209437	0.000000	0.846262	0.000000	0.838524	0.000000	-1.971578	15.370043	2.813948	0.146500	0.000000	0.219917	-0.000000	1.328634	0.000000	
0.372000	-0.039460	25.598473	-2.261622	0.228445	0.000000	-0.261173	0.000001	0.150315	0.000000	-0.170253	37.434105	-2.882320	0.213808	0.000000	-1.421097	0.000003	0.511560	0.000000	-1.611014	581.068481	-1.928072	0.212683	0.000000	-0.869428	0.000023	-0.710738	0.000007	3.375609	14.032001	0.569722	0.217062	0.000000	0.878936	0.000000	1.023930	0.000000	-1.808758	15.686444	2.654601	0.149342	0.000000	0.233216	-0.000000	1.169278	0.000000	
0.373000	0.604032	25.593897	-2.423432	0.217568	0.000000	-0.261226	0.000001	0.159772	0.000000	0.633265	37.113213	-2.400717	0.214127	0.000000	-1.428208	0.000005	0.667483	0.000000	-2.256729	583.310425	-1.283895	0.212371	0.000000	-0.869179	0.000043	-0.675259	0.000010	2.728875	13.714752	1.051325	0.217660	0.000000	0.866421	-0.000000	0.885282	0.000000	-2.450730	16.003654	2.332852	0.159909	0.000000	0.237080	-0.000000	1.110508	0.000000	
0.374000	-1.004697	24.643211	-1.616089	0.210418	0.000000	-0.280058	0.000000	0.123110	0.000000	0.633265	36.794666	-2.400379	0.214932	0.000000	-1.415682	0.000003	0.715910	0.000000	-1.285839	580.428101	-0.959766	0.212588	0.000000	-0.869317	0.000033	-0.570609	-0.000001	3.375609	12.453985	0.568024	0.215745	0.000000	0.859038	-0.000001	0.880279	0.000000	-1.971578	14.733942	2.654601	0.149681	0.000000	0.214503	-0.000000	1.380192	0.000000	
0.375000	-0.039460	25.907537	-2.907497	0.217871	0.000000	-0.278753	0.000000	0.189830	0.000000	0.311857	37.115883	-2.078293	0.215344	0.000000	-1.414316	-0.000001	0.698179	0.000001	-1.607925	579.468689	-1.607004	0.212510	0.000000	-0.869002	0.000032	-0.624755	0.000003	2.890344	13.398026	0.730256	0.209783	0.000000	0.840988	-0.000001	0.885365	0.000000	-1.807912	13.772159	2.494235	0.151296	0.000000	0.191706	-0.000000	1.186216	0.000000	
0.376000	-0.522078	25.595543	-2.583537	0.224895	0.000000	-0.284999	0.000000	0.317906	0.000000	0.796006	36.156231	-2.239506	0.214838	0.000000	-1.396338	0.000004	0.536331	0.000000	-1.611014	580.748962	-1.282875	0.212480	0.000000	-0.868834	0.000023	-0.681243	0.000002	3.050954	14.028913	0.086421	0.209904	0.000000	0.842429	-0.000000	0.980208	0.000000	-1.648477	14.723853	2.333869	0.139655	0.000000	0.222867	-0.000000	1.249332	-0.000000	
0.377000	-0.200332	24.009739	-1.777899	0.209049	0.000000	-0.269807	0.000000	0.174785	0.000000	0.312367	36.793667	-2.400717	0.212456	0.000000	-1.412191	0.000006	0.516771	0.000000	-1.451515	579.789246	-1.444429	0.212581	0.000000	-0.868691	0.000048	-0.790638	0.000012	3.214140	13.084253	0.568024	0.219940	0.000000	0.852801	-0.000001	0.835398	0.000000	-1.487349	15.368641	2.333869	0.153788	0.000000	0.209449	-0.000000	1.188430	0.000000	
0.378000	0.764905	26.225084	-1.777899	0.220508	0.000000	-0.265626	-0.000000	0.034451	0.000000	0.633265	36.159550	-2.238829	0.223243	0.000000	-1.414233	0.000001	0.829466	0.000000	-1.284295	581.707275	-1.442388	0.212693	0.000000	-0.869005	0.000010	-0.480868	0.000006	3.213281	13.399168	0.407490	0.194643	0.000000	0.839814	-0.000001	0.891258	0.000000	-1.488195	14.099617	2.334887	0.141526	0.000000	0.235760	-0.000000	1.280938	0.000000	
0.379000	-0.361205	27.172836	-2.260941	0.216273	0.000000	-0.265396	0.000000	0.253580	0.000000	-0.009040	36.795002	-2.239506	0.217739	0.000000	-1.405249	0.000005	0.491901	0.000000	-1.449971	581.707275	-1.444429	0.212549	0.000000	-0.869633	0.000013	-0.724545	0.000005	3.214140	14.973925	0.730256	0.217213	0.000000	0.845540	-0.000001	0.868813	0.000000	-1.971578	16.008137	2.655618	0.157784	0.000000	0.222657	-0.000000	1.381260	0.000000	
0.380000	-0.200333	26.228027	-2.584219	0.224806	0.000000	-0.276276	0.000000	0.243350	0.000000	0.150644	38.393768	-3.042854	0.220634	0.000000	-1.421882	0.000002	0.707675	0.000001	-1.768968	582.351440	-2.249141	0.212237	0.000000	-0.869727	0.000018	-0.511781	0.000007	3.052672	13.400749	1.051325	0.233263	0.000000	0.861106	-0.000001	0.835134	0.000000	-1.164248	16.316288	3.137733	0.162743	0.000000	0.229473	-0.000000	0.990717	-0.000000	
0.381000	-0.361205	27.486147	-2.262305	0.214765	0.000000	-0.272307	0.000001	-0.030857	0.000000	0.312367	39.344444	-2.399363	0.211920	0.000000	-1.424400	0.000001	0.665930	0.000000	-1.609470	579.145813	-1.602924	0.212718	0.000000	-0.868671	0.000029	-0.535176	0.000002	3.052672	14.025884	0.568024	0.225693	0.000000	0.844503	-0.000001	0.785357	0.000000	-1.651016	17.274021	2.814966	0.145797	0.000000	0.259720	-0.000000	1.335591	0.000000	
0.382000	-0.361205	25.594229	-2.584219	0.218878	0.000000	-0.270926	0.000000	0.190106	0.000000	0.151155	38.708328	-2.240183	0.215624	0.000000	-1.419779	0.000003	0.519545	-0.000000	-1.126341	580.429077	-2.087587	0.212469	0.000000	-0.869616	0.000049	-0.668117	0.000009	2.728017	17.176294	0.568024	0.211883	0.000000	0.865368	-0.000000	0.939563	0.000000	-1.328760	14.410471	2.173504	0.154738	0.000000	0.196408	-0.000000	1.358614	0.000000	
0.383000	0.282286	24.964025	-1.777558	0.226774	0.000000	-0.264011	0.000000	0.229034	0.000000	0.794987	37.111229	-3.043530	0.213753	0.000000	-1.405311	0.000003	0.608531	0.000000	-1.123252	582.030884	-1.928072	0.212364	0.000000	-0.869372	0.000045	-0.598953	0.000009	3.213281	14.973145	0.889941	0.217677	0.000000	0.862385	-0.000000	0.926710	0.000000	-1.808758	15.682396	3.137733	0.168898	0.000000	0.225197	-0.000000	1.166384	0.000000	
0.384000	-0.682951	25.596840	-2.906816	0.224168	0.000000	-0.262234	0.000001	0.196243	0.000000	0.311857	36.475117	-2.882658	0.213238	0.000000	-1.399856	-0.000000	0.612438	0.000000	-2.741400	582.027222	-1.283895	0.212631	0.000000	-0.869323	0.000015	-0.657570	0.000011	2.729734	14.031382	1.212708	0.220121	0.000000	0.872542	-0.000000	0.850716	0.000000	-1.489042	16.951361	2.815984	0.158125	0.000000	0.239734	-0.000000	1.263030	0.000000	
0.385000	-0.522078	27.172510	-2.584560	0.215913	0.000000	-0.261506	0.000000	0.101970	0.000000	0.151664	35.841660	-2.078972	0.219772	0.000000	-1.414840	0.000001	0.519929	0.000000	-1.765878	582.995972	-2.087587	0.212083	0.000000	-0.869326	0.000032	-0.365855	0.000001	3.052672	15.604519	0.568873	0.221557	0.000000	0.871615	-0.000001	0.909081	0.000000	-1.004812	16.000477	2.977367	0.145779	0.000000	0.232408	-0.000000	1.133449	0.000000	
0.386000	-0.039460	26.225737	-2.906133	0.216079	0.000000	-0.272180	-0.000000	0.274837	0.000000	0.472561	36.791336	-2.722463	0.214743	0.000000	-1.416110	0.000002	0.597132	0.000000	-2.258272	580.107849	-2.570209	0.212438	0.000000	-0.868903	0.000025	-0.647756	0.000007	3.374750	15.290881	0.407490	0.220768	0.000000	0.881904	-0.000001	1.042004	0.000000	-1.006505	15.055201	2.011103	0.145162	0.000000	0.227748	-0.000000	1.176723	0.000000	
0.387000	-0.200333	27.802713	-2.906816	0.213474	0.000000	-0.271548	0.000001	0.088726	0.000000	-0.170762	37.431446	-2.882320	0.211767	0.000000	-1.417704	0.000001	0.569439	0.000001	-1.930010	581.386719	-1.926033	0.212708	0.000000	-0.868713	0.000013	-0.450677	0.000001	3.861733	15.918910	0.729407	0.211605	0.000000	0.869101	-0.000000	0.876714	0.000000	-1.648477	15.689839	2.332852	0.158976	0.000000	0.239386	-0.000000	1.138360	-0.000000	
0.388000	-0.522078	24.644840	-2.584219	0.214462	0.000000	-0.267303	0.000001	0.139953	0.000000	0.151664	39.344116	-2.882320	0.213477	0.000000	-1.418660	0.000001	0.536271	0.000000	-1.773601	581.713623	-2.248121	0.212378	0.000000	-0.869065	0.000022	-0.668317	0.000008	3.052672	15.288803	1.048778	0.209243	0.000000	0.851968	-0.000000	0.716624	0.000000	-1.327914	15.681586	3.136715	0.160382	0.000000	0.233787	-0.000000	1.193631	0.000000	
0.389000	-0.361205	25.592268	-2.906816	0.215767	0.000000	-0.266758	0.000000	0.185606	0.000000	0.311348	39.027561	-2.400040	0.214553	0.000000	-1.412561	0.000003	0.727494	0.000000	-1.768968	580.753357	-1.765497	0.212051	0.000000	-0.868239	0.000000	-0.501150	0.000001	3.537936	14.972172	0.568024	0.208427	0.000000	0.844839	-0.000000	0.791840	0.000000	-1.647631	17.912987	2.978385	0.153492	0.000000	0.241527	-0.000000	1.190760	0.000000	
0.390000	0.121413	25.276669	-2.745006	0.215080	0.000000	-0.249306	0.000001	0.160896	0.000001	0.151664	37.431442	-2.560913	0.210204	0.000000	-1.417256	0.000002	0.523812	0.000000	-2.095686	581.710327	-1.443409	0.212491	0.000000	-0.869421	0.000044	-0.641935	0.000009	2.729734	15.287270	0.567175	0.223069	0.000000	0.858748	-0.000000	0.746915	0.000000	-1.807912	14.730112	2.172486	0.161049	0.000000	0.203108	0.000000	1.128622	0.000000	
0.391000	-0.682951	24.960104	-2.422410	0.215487	0.000000	-0.264996	-0.000000	0.159173	0.000000	-0.170253	36.792332	-2.401056	0.210000	0.000000	-1.418991	0.000003	0.399049	0.000001	-1.931555	581.709656	-2.251179	0.212770	0.000000	-0.868860	0.000013	-0.626971	0.000002	3.052672	14.032427	1.213557	0.199481	0.000000	0.855016	-0.000000	0.910136	0.000000	-2.132706	16.320709	2.977367	0.168997	0.000000	0.228572	-0.000000	1.396874	0.000000	
0.392000	0.443159	25.279623	-2.907497	0.228698	0.000000	-0.283075	0.000001	0.197475	0.000000	0.633774	36.793995	-2.400379	0.213025	0.000000	-1.419050	0.000001	0.644858	0.000000	-2.741400	580.428711	-1.283895	0.212326	0.000000	-0.869340	-0.000000	-0.657912	0.000009	3.698546	15.286821	0.729407	0.206246	0.000000	0.834745	-0.000001	0.859083	0.000000	-2.130167	16.322170	2.013138	0.151638	0.000000	0.219385	-0.000000	1.266662	0.000000	
0.393000	0.121413	25.908840	-2.906816	0.215147	0.000000	-0.278769	-0.000000	0.230566	0.000000	0.472561	36.154556	-1.757902	0.212905	0.000000	-1.413242	0.000002	0.619728	0.000000	-1.607925	581.065186	-1.766518	0.212684	0.000000	-0.869417	-0.000005	-0.563870	0.000006	2.891203	14.344923	0.246106	0.216741	0.000000	0.840553	-0.000001	0.764206	0.000000	-1.327068	14.410629	2.814966	0.158187	0.000000	0.216181	-0.000000	1.145950	-0.000000	
0.394000	0.604032	24.648106	-2.100495	0.223080	0.000000	-0.266541	0.000001	0.008171	0.000000	0.793458	35.518772	-2.400717	0.213624	0.000000	-1.416078	0.000005	0.783924	-0.000000	-2.094142	582.030518	-1.281855	0.212417	0.000000	-0.869529	0.000006	-0.559661	0.000006	3.213281	14.346418	0.569722	0.218095	0.000000	0.850266	-0.000001	0.970347	0.000000	-1.646784	13.779011	2.172486	0.157179	0.000000	0.190024	-0.000000	1.107514	0.000000	
